<svg data-v-423bf9ae="" xmlns="http://www.w3.org/2000/svg" viewBox="0 0 580 90" class="iconLeft"><!----><!----><!----><g data-v-423bf9ae="" id="184c23f6-b406-4126-8d28-e64185f85f7a" fill="black" transform="matrix(4.2492915321425375,0,0,4.2492915321425375,129.37254164637878,3.696883444525497)"><path d="M1.16 13.78L1.16 2.80L3.92 2.80L5.87 11.98L7.81 2.80L10.58 2.80L10.58 13.78L8.87 13.78L8.85 7.20L8.97 4.24L8.90 4.24L6.68 13.78L5.07 13.78L2.84 4.24L2.77 4.24L2.88 7.18L2.87 13.78L1.16 13.78ZM15.00 5.48L15.00 5.48Q16.30 5.48 17.07 6.14L17.07 6.14L17.07 6.14Q17.83 6.80 17.83 8.12L17.83 8.12L17.83 13.78L16.40 13.78L16.32 12.54L16.22 12.54L16.22 12.54Q16.02 13.01 15.68 13.33L15.68 13.33L15.68 13.33Q15.33 13.64 14.93 13.80L14.93 13.80L14.93 13.80Q14.53 13.96 14.14 13.96L14.14 13.96L14.14 13.96Q13.52 13.96 13.04 13.69L13.04 13.69L13.04 13.69Q12.56 13.42 12.29 12.94L12.29 12.94L12.29 12.94Q12.03 12.46 12.03 11.85L12.03 11.85L12.03 11.85Q12.03 11.01 12.38 10.43L12.38 10.43L12.38 10.43Q12.72 9.85 13.41 9.42L13.41 9.42L13.41 9.42Q13.95 9.08 14.69 8.85L14.69 8.85L14.69 8.85Q15.42 8.61 16.28 8.50L16.28 8.50L16.28 8.22L16.28 8.22Q16.32 7.46 16.01 7.11L16.01 7.11L16.01 7.11Q15.70 6.76 15.03 6.76L15.03 6.76L15.03 6.76Q14.43 6.76 14.04 7.08L14.04 7.08L14.04 7.08Q13.65 7.39 13.41 7.97L13.41 7.97L12.16 7.36L12.16 7.36Q12.52 6.41 13.25 5.94L13.25 5.94L13.25 5.94Q13.99 5.48 15.00 5.48L15.00 5.48ZM14.66 12.64L14.66 12.64Q15.20 12.63 15.60 12.27L15.60 12.27L15.60 12.27Q15.99 11.92 16.26 11.35L16.26 11.35L16.26 9.67L16.26 9.67Q15.73 9.73 15.25 9.90L15.25 9.90L15.25 9.90Q14.77 10.06 14.41 10.32L14.41 10.32L14.41 10.32Q13.65 10.86 13.65 11.64L13.65 11.64L13.65 11.64Q13.65 11.96 13.79 12.19L13.79 12.19L13.79 12.19Q13.92 12.43 14.16 12.54L14.16 12.54L14.16 12.54Q14.39 12.66 14.66 12.64L14.66 12.64ZM22.18 13.96L22.18 13.96Q21.10 13.96 20.39 13.39L20.39 13.39L20.39 13.39Q19.68 12.82 19.35 11.86L19.35 11.86L19.35 11.86Q19.02 10.91 19.02 9.73L19.02 9.73L19.02 9.73Q19.02 8.52 19.35 7.56L19.35 7.56L19.35 7.56Q19.68 6.60 20.39 6.04L20.39 6.04L20.39 6.04Q21.10 5.48 22.18 5.48L22.18 5.48L22.18 5.48Q23.36 5.48 24.04 6.08L24.04 6.08L24.04 6.08Q24.72 6.69 25.03 7.91L25.03 7.91L23.65 8.30L23.65 8.30Q23.52 7.55 23.18 7.16L23.18 7.16L23.18 7.16Q22.84 6.77 22.24 6.77L22.24 6.77L22.24 6.77Q21.38 6.77 21.02 7.61L21.02 7.61L21.02 7.61Q20.66 8.44 20.66 9.73L20.66 9.73L20.66 9.73Q20.66 11.01 21.02 11.82L21.02 11.82L21.02 11.82Q21.38 12.64 22.24 12.64L22.24 12.64L22.24 12.64Q22.85 12.64 23.18 12.25L23.18 12.25L23.18 12.25Q23.52 11.87 23.65 11.14L23.65 11.14L24.97 11.47L24.97 11.47Q24.71 12.74 24.02 13.35L24.02 13.35L24.02 13.35Q23.34 13.96 22.18 13.96L22.18 13.96ZM28.98 13.92L28.98 13.92Q28.19 13.92 27.49 13.63L27.49 13.63L27.49 13.63Q26.79 13.34 26.27 12.66L26.27 12.66L26.27 12.66Q25.76 11.98 25.57 10.87L25.57 10.87L27.01 10.37L27.01 10.37Q27.20 11.44 27.73 11.95L27.73 11.95L27.73 11.95Q28.26 12.46 28.99 12.46L28.99 12.46L28.99 12.46Q29.66 12.46 30.01 12.06L30.01 12.06L30.01 12.06Q30.37 11.66 30.37 10.88L30.37 10.88L30.37 10.88Q30.37 10.30 30.13 9.90L30.13 9.90L30.13 9.90Q29.89 9.49 29.51 9.21L29.51 9.21L29.51 9.21Q29.13 8.94 28.46 8.57L28.46 8.57L28.30 8.48L28.30 8.48Q27.56 8.07 27.10 7.73L27.10 7.73L27.10 7.73Q26.63 7.39 26.30 6.84L26.30 6.84L26.30 6.84Q25.98 6.28 25.98 5.48L25.98 5.48L25.98 5.48Q25.98 4.16 26.71 3.41L26.71 3.41L26.71 3.41Q27.44 2.66 28.87 2.66L28.87 2.66L28.87 2.66Q29.57 2.66 30.19 2.91L30.19 2.91L30.19 2.91Q30.82 3.16 31.27 3.73L31.27 3.73L31.27 3.73Q31.72 4.31 31.88 5.22L31.88 5.22L30.57 5.67L30.57 5.67Q30.42 4.87 30.02 4.47L30.02 4.47L30.02 4.47Q29.61 4.07 28.90 4.07L28.90 4.07L28.90 4.07Q28.25 4.07 27.92 4.44L27.92 4.44L27.92 4.44Q27.59 4.82 27.59 5.37L27.59 5.37L27.59 5.37Q27.59 5.78 27.81 6.08L27.81 6.08L27.81 6.08Q28.03 6.39 28.36 6.61L28.36 6.61L28.36 6.61Q28.68 6.84 29.28 7.16L29.28 7.16L29.72 7.41L29.72 7.41Q30.42 7.82 30.90 8.22L30.90 8.22L30.90 8.22Q31.38 8.61 31.72 9.26L31.72 9.26L31.72 9.26Q32.05 9.90 32.05 10.81L32.05 10.81L32.05 10.81Q32.05 11.74 31.68 12.44L31.68 12.44L31.68 12.44Q31.32 13.15 30.63 13.53L30.63 13.53L30.63 13.53Q29.94 13.92 28.98 13.92L28.98 13.92ZM33.46 13.78L33.46 2.80L35.10 2.80L35.10 6.88L35.17 6.88L35.17 6.88Q35.47 6.22 35.97 5.85L35.97 5.85L35.97 5.85Q36.46 5.48 37.14 5.48L37.14 5.48L37.14 5.48Q37.81 5.48 38.32 5.81L38.32 5.81L38.32 5.81Q38.82 6.15 39.10 6.77L39.10 6.77L39.10 6.77Q39.38 7.40 39.38 8.24L39.38 8.24L39.38 13.78L37.72 13.78L37.72 8.46L37.72 8.46Q37.72 7.62 37.43 7.25L37.43 7.25L37.43 7.25Q37.15 6.89 36.59 6.89L36.59 6.89L36.59 6.89Q36.15 6.89 35.82 7.14L35.82 7.14L35.82 7.14Q35.49 7.40 35.30 7.86L35.30 7.86L35.30 7.86Q35.12 8.33 35.12 8.94L35.12 8.94L35.12 13.78L33.46 13.78ZM43.81 13.96L43.81 13.96Q42.82 13.96 42.09 13.50L42.09 13.50L42.09 13.50Q41.36 13.04 40.96 12.10L40.96 12.10L40.96 12.10Q40.56 11.15 40.56 9.73L40.56 9.73L40.56 9.73Q40.56 8.30 40.96 7.35L40.96 7.35L40.96 7.35Q41.36 6.40 42.09 5.94L42.09 5.94L42.09 5.94Q42.81 5.48 43.81 5.48L43.81 5.48L43.81 5.48Q44.80 5.48 45.53 5.94L45.53 5.94L45.53 5.94Q46.25 6.40 46.65 7.35L46.65 7.35L46.65 7.35Q47.05 8.30 47.05 9.73L47.05 9.73L47.05 9.73Q47.05 11.15 46.65 12.10L46.65 12.10L46.65 12.10Q46.25 13.04 45.53 13.50L45.53 13.50L45.53 13.50Q44.80 13.96 43.81 13.96L43.81 13.96ZM43.80 12.63L43.80 12.63Q44.60 12.63 45.03 11.96L45.03 11.96L45.03 11.96Q45.46 11.29 45.46 9.73L45.46 9.73L45.46 9.73Q45.46 8.13 45.04 7.46L45.04 7.46L45.04 7.46Q44.61 6.79 43.80 6.79L43.80 6.79L43.80 6.79Q43.02 6.79 42.60 7.46L42.60 7.46L42.60 7.46Q42.18 8.13 42.18 9.73L42.18 9.73L42.18 9.73Q42.18 11.29 42.60 11.96L42.60 11.96L42.60 11.96Q43.02 12.63 43.80 12.63L43.80 12.63ZM48.39 16.61L48.39 5.63L49.89 5.63L49.94 6.90L50.03 6.90L50.03 6.90Q50.31 6.22 50.85 5.85L50.85 5.85L50.85 5.85Q51.40 5.48 52.14 5.48L52.14 5.48L52.14 5.48Q53.03 5.48 53.66 5.96L53.66 5.96L53.66 5.96Q54.28 6.44 54.61 7.39L54.61 7.39L54.61 7.39Q54.94 8.33 54.94 9.71L54.94 9.71L54.94 9.71Q54.94 11.07 54.61 12.03L54.61 12.03L54.61 12.03Q54.28 12.98 53.68 13.47L53.68 13.47L53.68 13.47Q53.08 13.96 52.25 13.96L52.25 13.96L52.25 13.96Q51.47 13.96 50.93 13.62L50.93 13.62L50.93 13.62Q50.39 13.28 50.08 12.67L50.08 12.67L50.03 12.67L50.03 16.61L48.39 16.61ZM51.61 12.56L51.61 12.56Q52.41 12.56 52.83 11.86L52.83 11.86L52.83 11.86Q53.26 11.16 53.26 9.69L53.26 9.69L53.26 9.69Q53.26 6.87 51.61 6.87L51.61 6.87L51.61 6.87Q51.11 6.87 50.74 7.21L50.74 7.21L50.74 7.21Q50.37 7.54 50.18 8.18L50.18 8.18L50.18 8.18Q49.98 8.81 49.98 9.69L49.98 9.69L49.98 9.69Q49.98 10.59 50.18 11.23L50.18 11.23L50.18 11.23Q50.37 11.88 50.74 12.22L50.74 12.22L50.74 12.22Q51.11 12.56 51.61 12.56L51.61 12.56ZM56.31 16.61L56.31 5.63L57.81 5.63L57.87 6.90L57.95 6.90L57.95 6.90Q58.23 6.22 58.78 5.85L58.78 5.85L58.78 5.85Q59.32 5.48 60.07 5.48L60.07 5.48L60.07 5.48Q60.95 5.48 61.58 5.96L61.58 5.96L61.58 5.96Q62.21 6.44 62.54 7.39L62.54 7.39L62.54 7.39Q62.86 8.33 62.86 9.71L62.86 9.71L62.86 9.71Q62.86 11.07 62.54 12.03L62.54 12.03L62.54 12.03Q62.21 12.98 61.61 13.47L61.61 13.47L61.61 13.47Q61.00 13.96 60.18 13.96L60.18 13.96L60.18 13.96Q59.40 13.96 58.86 13.62L58.86 13.62L58.86 13.62Q58.32 13.28 58.00 12.67L58.00 12.67L57.96 12.67L57.96 16.61L56.31 16.61ZM59.53 12.56L59.53 12.56Q60.33 12.56 60.76 11.86L60.76 11.86L60.76 11.86Q61.18 11.16 61.18 9.69L61.18 9.69L61.18 9.69Q61.18 6.87 59.53 6.87L59.53 6.87L59.53 6.87Q59.03 6.87 58.66 7.21L58.66 7.21L58.66 7.21Q58.30 7.54 58.10 8.18L58.10 8.18L58.10 8.18Q57.90 8.81 57.90 9.69L57.90 9.69L57.90 9.69Q57.90 10.59 58.10 11.23L58.10 11.23L58.10 11.23Q58.30 11.88 58.66 12.22L58.66 12.22L58.66 12.22Q59.03 12.56 59.53 12.56L59.53 12.56ZM64.24 4.44L64.24 2.80L65.91 2.80L65.91 4.44L64.24 4.44ZM64.23 13.78L64.23 5.63L65.91 5.63L65.91 13.78L64.23 13.78ZM67.74 13.78L67.74 5.63L69.32 5.63L69.38 6.88L69.45 6.88L69.45 6.88Q69.75 6.21 70.25 5.84L70.25 5.84L70.25 5.84Q70.75 5.48 71.42 5.48L71.42 5.48L71.42 5.48Q72.09 5.48 72.60 5.81L72.60 5.81L72.60 5.81Q73.10 6.15 73.38 6.77L73.38 6.77L73.38 6.77Q73.66 7.40 73.66 8.24L73.66 8.24L73.66 13.78L72.00 13.78L72.00 8.41L72.00 8.41Q72.00 7.57 71.71 7.20L71.71 7.20L71.71 7.20Q71.43 6.84 70.87 6.84L70.87 6.84L70.87 6.84Q70.43 6.84 70.10 7.09L70.10 7.09L70.10 7.09Q69.77 7.34 69.59 7.81L69.59 7.81L69.59 7.81Q69.41 8.27 69.41 8.89L69.41 8.89L69.41 13.78L67.74 13.78ZM79.84 5.63L81.35 5.63L81.35 13.21L81.35 13.21Q81.35 14.47 80.91 15.27L80.91 15.27L80.91 15.27Q80.47 16.06 79.72 16.42L79.72 16.42L79.72 16.42Q78.98 16.78 78.03 16.78L78.03 16.78L78.03 16.78Q77.46 16.78 76.89 16.61L76.89 16.61L76.89 16.61Q76.32 16.45 75.82 16.10L75.82 16.10L75.82 16.10Q75.33 15.74 75.01 15.21L75.01 15.21L75.91 14.31L75.91 14.31Q76.30 14.95 76.86 15.22L76.86 15.22L76.86 15.22Q77.42 15.49 78.00 15.49L78.00 15.49L78.00 15.49Q78.78 15.49 79.25 14.95L79.25 14.95L79.25 14.95Q79.72 14.40 79.72 13.26L79.72 13.26L79.72 12.37L79.72 12.37Q79.39 12.95 78.89 13.29L78.89 13.29L78.89 13.29Q78.39 13.62 77.64 13.62L77.64 13.62L77.64 13.62Q76.76 13.62 76.13 13.10L76.13 13.10L76.13 13.10Q75.49 12.57 75.15 11.64L75.15 11.64L75.15 11.64Q74.82 10.71 74.82 9.52L74.82 9.52L74.82 9.52Q74.82 8.35 75.16 7.44L75.16 7.44L75.16 7.44Q75.50 6.52 76.15 6.00L76.15 6.00L76.15 6.00Q76.80 5.48 77.70 5.48L77.70 5.48L77.70 5.48Q78.37 5.48 78.89 5.77L78.89 5.77L78.89 5.77Q79.42 6.06 79.69 6.63L79.69 6.63L79.79 6.63L79.84 5.63ZM78.21 12.28L78.21 12.28Q79.06 12.28 79.47 11.57L79.47 11.57L79.47 11.57Q79.88 10.87 79.88 9.66L79.88 9.66L79.88 9.66Q79.88 8.43 79.46 7.64L79.46 7.64L79.46 7.64Q79.04 6.84 78.17 6.84L78.17 6.84L78.17 6.84Q77.33 6.84 76.91 7.59L76.91 7.59L76.91 7.59Q76.49 8.34 76.49 9.56L76.49 9.56L76.49 9.56Q76.49 10.78 76.92 11.53L76.92 11.53L76.92 11.53Q77.34 12.28 78.21 12.28L78.21 12.28ZM86.45 13.78L86.45 2.80L88.17 2.80L88.17 12.28L91.61 12.28L91.61 13.78L86.45 13.78ZM92.67 4.44L92.67 2.80L94.33 2.80L94.33 4.44L92.67 4.44ZM92.65 13.78L92.65 5.63L94.33 5.63L94.33 13.78L92.65 13.78ZM98.67 13.95L98.67 13.95Q97.45 13.95 96.59 13.31L96.59 13.31L96.59 13.31Q95.72 12.67 95.38 11.47L95.38 11.47L96.67 10.92L96.67 10.92Q96.78 11.47 97.06 11.86L97.06 11.86L97.06 11.86Q97.34 12.25 97.71 12.45L97.71 12.45L97.71 12.45Q98.08 12.65 98.47 12.65L98.47 12.65L98.47 12.65Q98.96 12.65 99.27 12.38L99.27 12.38L99.27 12.38Q99.59 12.11 99.59 11.61L99.59 11.61L99.59 11.61Q99.59 11.25 99.39 11.00L99.39 11.00L99.39 11.00Q99.20 10.74 98.91 10.57L98.91 10.57L98.91 10.57Q98.62 10.40 98.08 10.17L98.08 10.17L97.84 10.06L97.84 10.06Q97.21 9.77 96.81 9.51L96.81 9.51L96.81 9.51Q96.41 9.26 96.13 8.82L96.13 8.82L96.13 8.82Q95.86 8.39 95.86 7.74L95.86 7.74L95.86 7.74Q95.86 6.98 96.24 6.47L96.24 6.47L96.24 6.47Q96.62 5.95 97.21 5.71L97.21 5.71L97.21 5.71Q97.79 5.47 98.43 5.47L98.43 5.47L98.43 5.47Q99.39 5.47 100.12 5.92L100.12 5.92L100.12 5.92Q100.86 6.37 101.12 7.44L101.12 7.44L99.91 7.81L99.91 7.81Q99.74 7.23 99.37 6.92L99.37 6.92L99.37 6.92Q99.01 6.62 98.55 6.62L98.55 6.62L98.55 6.62Q98.06 6.62 97.74 6.86L97.74 6.86L97.74 6.86Q97.41 7.11 97.41 7.64L97.41 7.64L97.41 7.64Q97.41 7.99 97.62 8.24L97.62 8.24L97.62 8.24Q97.82 8.50 98.13 8.67L98.13 8.67L98.13 8.67Q98.44 8.84 98.98 9.07L98.98 9.07L99.14 9.14L99.14 9.14Q99.80 9.42 100.24 9.72L100.24 9.72L100.24 9.72Q100.68 10.01 100.95 10.48L100.95 10.48L100.95 10.48Q101.23 10.94 101.23 11.62L101.23 11.62L101.23 11.62Q101.23 12.33 100.89 12.86L100.89 12.86L100.89 12.86Q100.56 13.38 99.98 13.67L99.98 13.67L99.98 13.67Q99.39 13.95 98.67 13.95L98.67 13.95ZM104.54 13.78L104.54 13.78Q103.52 13.78 103.07 13.23L103.07 13.23L103.07 13.23Q102.62 12.68 102.62 11.49L102.62 11.49L102.62 6.79L101.70 6.79L101.70 5.63L102.71 5.63L103.02 3.76L104.27 3.76L104.27 5.63L105.86 5.63L105.86 6.79L104.27 6.79L104.27 11.11L104.27 11.11Q104.27 11.64 104.35 11.93L104.35 11.93L104.35 11.93Q104.44 12.22 104.64 12.34L104.64 12.34L104.64 12.34Q104.84 12.46 105.23 12.46L105.23 12.46L105.77 12.46L105.77 13.78L104.54 13.78Z"></path></g><!----><g data-v-423bf9ae="" id="d8b54de0-c525-4e48-bf50-e5f7342c3116" transform="matrix(1.3138342250581294,0,0,1.3138342250581294,-8.191004562523645,-9.510110975013923)" stroke="none" fill="black"><path d="M93.051 35.923a3.001 3.001 0 0 0-2.552-1.423H73.504L56.58 9.113a2.5 2.5 0 1 0-4.16 2.774L67.495 34.5H32.504L47.58 11.887a2.5 2.5 0 1 0-4.16-2.774L26.495 34.5H9.5a3.001 3.001 0 0 0-2.683 4.342l18 36A2.998 2.998 0 0 0 27.5 76.5h45a3.002 3.002 0 0 0 2.684-1.658l18-36a3.005 3.005 0 0 0-.133-2.919zM71.5 35.459a2.041 2.041 0 1 1 0 4.083 2.041 2.041 0 0 1 0-4.083zM58.756 40.5h11.448L69.079 45H58.38l.376-4.5zM58.13 48h10.198l-1.5 6H57.63l.5-6zm-15.76 6h-9.199l-1.5-6H41.87l.5 6zm-1.125-13.5l.375 4.5H30.921l-1.125-4.5h11.449zm-12.669-5.118a2.043 2.043 0 0 1 0 4.084 2.043 2.043 0 0 1 0-4.084zM14.354 40.5h12.351L27.83 45H16.604l-2.25-4.5zm3.75 7.5H28.58l1.5 6h-8.975l-3.001-6zm4.5 9h8.225l1.5 6h-6.725l-3-6zm6.75 13.5l-2.25-4.5h5.975l1.125 4.5h-4.85zM33.921 57h8.699l.5 6h-7.699l-1.5-6zm3.375 13.5L36.171 66h7.199l.375 4.5h-6.449zm15.947 0h-6.489l-.375-4.5h7.24l-.376 4.5zm.626-7.5h-7.74l-.5-6h8.74l-.5 6zm.75-9h-9.24l-.5-6h10.24l-.5 6zm.75-9h-10.74l-.375-4.5h11.49l-.375 4.5zm7.334 25.5h-6.448l.375-4.5h7.198l-1.125 4.5zM56.88 63l.5-6h8.698l-1.5 6H56.88zm13.765 7.5h-4.85L66.92 66h5.975l-2.25 4.5zm3.75-7.5h-6.724l1.5-6h8.224l-3 6zm4.5-9h-8.974l1.5-6h10.474l-3 6zm4.5-9H72.171l1.125-4.5h12.349l-2.25 4.5z"></path></g><!----></svg>