<svg data-v-423bf9ae="" xmlns="http://www.w3.org/2000/svg" viewBox="0 0 389 90" class="iconLeft"><!----><!----><!----><g data-v-423bf9ae="" id="400c274f-f7a9-4d44-842e-d730ad58b504" fill="#8495b4" transform="matrix(4.3509786814039195,0,0,4.3509786814039195,84.6913936258608,5.210297966841182)"><path d="M0.35 10.04C0.53 10.95 0.73 11.87 0.90 12.81L1.37 12.77C1.37 12.77 1.36 12.67 1.36 12.59C1.36 12.46 1.40 12.29 1.61 12.29C1.89 12.29 2.28 12.54 3.23 12.54C5.28 12.54 6.41 11.27 6.41 9.93C6.41 8.75 5.45 8.09 4.40 7.50L3.63 7.08C2.69 6.57 1.88 6.02 1.88 5.12C1.88 4.24 2.63 3.63 3.50 3.63C4.65 3.63 5.40 4.19 5.40 4.19L5.53 5.43L6.03 5.42L5.82 2.86L5.35 2.88C5.35 2.88 5.35 3.25 5.14 3.25C5.04 3.25 4.42 2.97 3.74 2.97C2.34 2.97 0.95 4.00 0.95 5.46C0.95 6.80 1.90 7.42 2.91 7.98L3.49 8.30C4.41 8.81 5.28 9.38 5.28 10.26C5.28 11.33 4.41 11.96 3.42 11.96C2.67 11.96 2.27 11.86 1.68 11.65C1.16 11.47 1.15 11.45 1.02 10.85L0.84 9.98ZM8.67 4.10C8.67 4.27 9.00 4.73 9.25 4.73C9.41 4.73 9.86 4.31 9.86 4.12C9.86 3.89 9.41 3.51 9.25 3.51C9.07 3.51 8.67 3.88 8.67 4.10ZM7.62 7.15L7.63 7.57C8.06 7.49 8.33 7.46 8.40 7.46C8.55 7.46 8.61 7.55 8.61 7.91L8.61 11.65C8.61 11.94 8.50 11.97 7.80 11.97L7.67 11.97L7.67 12.42L10.71 12.42L10.71 11.97L10.46 11.97C9.63 11.97 9.59 11.93 9.59 11.59L9.59 6.73C8.82 6.94 8.23 7.06 7.62 7.15ZM11.19 7.60C11.56 7.53 11.80 7.46 11.94 7.46C12.17 7.46 12.17 7.63 12.17 8.20L12.17 11.66C12.17 11.94 12.05 11.97 11.61 11.97L11.21 11.97L11.23 12.42L13.96 12.42L13.96 11.97L13.89 11.97C13.16 11.97 13.15 11.94 13.15 11.66L13.15 8.12C13.15 8.12 13.78 7.67 14.45 7.67C15.08 7.67 15.33 8.04 15.33 8.74L15.33 11.75C15.33 11.96 15.18 11.97 14.63 11.97L14.46 11.97L14.48 12.42L17.14 12.42L17.14 11.97L17.01 11.97C16.37 11.97 16.31 11.96 16.31 11.73L16.31 9.14C16.31 8.57 16.25 8.13 16.25 8.13C16.25 8.13 16.79 7.67 17.64 7.67C18.21 7.67 18.49 7.85 18.49 8.74L18.49 11.63C18.49 11.97 18.40 11.97 17.67 11.97L17.67 12.42L20.38 12.42L20.38 11.97L20.24 11.97C19.54 11.97 19.47 11.96 19.47 11.62L19.47 8.74C19.47 7.97 19.39 6.89 18.13 6.89C17.40 6.89 16.63 7.45 16.18 7.78C16.16 7.69 15.93 6.89 15.09 6.89C14.17 6.89 13.34 7.67 13.12 7.80C13.12 7.25 13.15 6.78 13.15 6.78C13.15 6.78 11.79 7.08 11.19 7.17ZM20.61 15.60L20.62 16.04L23.84 16.04L23.86 15.60L23.65 15.60C22.76 15.60 22.54 15.58 22.54 15.25L22.54 12.35C22.54 12.35 23.30 12.59 24.28 12.59C25.89 12.59 26.95 11.31 26.95 9.60C26.95 8.15 25.96 6.90 24.63 6.90C23.56 6.90 22.54 7.94 22.54 7.94L22.54 6.79C21.81 6.99 21.21 7.15 20.69 7.25L20.71 7.70C21 7.64 21.21 7.56 21.34 7.56C21.48 7.56 21.56 7.66 21.56 7.95L21.56 15.26C21.56 15.57 21.46 15.60 20.61 15.60ZM22.54 11.65L22.54 8.37C22.68 8.26 23.21 7.73 24.00 7.73C25.09 7.73 25.96 8.76 25.96 10.05C25.96 10.79 25.62 12.12 24.23 12.12C23.25 12.12 22.54 11.65 22.54 11.65ZM27.38 2.58L27.41 3.05C27.68 3.00 28.17 2.91 28.21 2.91C28.43 2.91 28.46 3.02 28.46 3.61L28.46 11.59C28.46 11.94 28.29 11.97 27.83 11.97L27.52 11.97L27.52 12.42L30.58 12.42L30.58 11.97L30.34 11.97C29.60 11.97 29.44 11.94 29.44 11.59L29.44 2.25C28.76 2.38 28.10 2.48 27.38 2.58ZM31.01 9.86C31.01 10.93 31.60 12.60 33.57 12.60C35.08 12.60 36.12 11.42 36.12 11.16C36.12 11.03 36.06 10.99 35.99 10.99C35.76 10.99 35.24 11.65 34.13 11.65C32.96 11.65 32.06 10.86 32.06 9.45C32.06 9.38 32.07 9.30 32.07 9.25L35.59 8.83C35.64 8.83 35.81 8.78 35.81 8.62C35.81 8.13 35.01 6.83 33.49 6.83C32.10 6.83 31.01 8.04 31.01 9.86ZM32.10 8.76C32.26 7.84 32.79 7.31 33.35 7.31C34.12 7.31 34.51 8.46 34.51 8.46ZM35.71 3.64L35.95 3.64C36.32 3.64 36.48 3.71 36.78 4.52L39.75 12.63L39.97 12.63L42.69 5.64L45.07 12.64L45.30 12.64L48.40 4.61C48.72 3.74 48.75 3.64 49.21 3.64L49.38 3.64L49.36 3.08L46.97 3.08L46.97 3.64L47.33 3.64C47.70 3.64 48.02 3.65 48.02 3.95C48.02 4.00 47.99 4.09 47.96 4.19L45.47 10.72L43.43 4.76C43.19 4.05 43.18 3.96 43.18 3.86C43.18 3.67 43.25 3.64 43.54 3.64L44.28 3.64L44.28 3.08L40.95 3.08L40.95 3.64L41.64 3.64C42.11 3.64 42.28 4.42 42.43 4.86L40.12 10.77L37.70 4.10C37.69 4.05 37.67 3.99 37.67 3.95C37.67 3.67 38.04 3.64 38.50 3.64L38.81 3.64L38.82 3.08L35.71 3.08ZM48.71 9.69C48.71 11.10 49.62 12.63 51.51 12.63C53.30 12.63 54.42 11.41 54.42 9.84C54.42 8.61 53.83 6.80 51.48 6.80C49.56 6.80 48.71 8.23 48.71 9.69ZM49.83 9.35C49.83 7.98 50.54 7.28 51.35 7.28C52.36 7.28 53.24 8.11 53.24 9.80C53.24 10.96 52.84 12.08 51.69 12.08C50.54 12.08 49.83 10.64 49.83 9.35ZM55.01 7.20L55.05 7.63C55.34 7.57 55.78 7.48 55.90 7.48C56.07 7.48 56.10 7.60 56.10 7.98L56.10 11.40C56.10 11.94 56.06 11.97 55.48 11.97L55.22 11.97L55.22 12.42L58.56 12.42L58.56 11.97L57.96 11.97C57.15 11.97 57.08 11.91 57.08 11.40L57.08 9.03C57.08 8.48 57.78 8.04 58.23 8.04C58.42 8.04 58.56 8.13 58.56 8.36L58.56 8.54L58.79 8.62L59.32 7.24C59.32 7.24 59.14 6.89 58.55 6.89C57.74 6.89 57.09 8.26 57.05 8.32L57.05 6.73C55.29 7.17 55.59 7.08 55.01 7.20ZM59.93 12.42L62.92 12.42L62.92 11.87L62.41 11.87C62.01 11.87 61.85 11.86 61.85 11.73C61.85 11.65 61.94 11.49 62.17 11.23L64.69 8.32L66.67 10.85C67.23 11.58 67.24 11.61 67.24 11.69C67.24 11.86 66.96 11.87 66.54 11.87L66.21 11.87L66.21 12.42L69.82 12.42L69.80 11.87L69.57 11.87C68.94 11.87 68.81 11.76 67.23 9.73L65.44 7.45L68.31 4.28C68.89 3.64 68.84 3.64 69.73 3.64L69.73 3.08L66.74 3.08L66.72 3.64L67.12 3.64C67.55 3.64 67.77 3.65 67.77 3.82C67.77 3.96 67.77 4.00 66.96 4.93L65.09 7.04L63.27 4.61C62.78 3.93 62.76 3.88 62.76 3.78C62.76 3.64 62.93 3.64 63.35 3.64L63.73 3.64L63.73 3.08L60.17 3.08L60.17 3.64C61.07 3.64 61.00 3.64 61.60 4.40L64.36 7.88L61.68 10.91C60.84 11.84 60.97 11.87 59.93 11.87Z"></path></g><!----><g data-v-423bf9ae="" id="0bc5dc7d-274b-4c56-9d90-06d5444cf893" transform="matrix(1.6051935614436112,0,0,1.6051935614436112,-17.99119396619556,-5.400801997127736)" stroke="none" fill="#8495B4"><path style="line-height:normal;text-indent:0;text-align:start;text-decoration-line:none;text-decoration-style:solid;text-decoration-color:#000;text-transform:none;block-progression:tb;isolation:auto;mix-blend-mode:normal" d="M47.139 3.967a.5.5 0 0 0-.412.215L44.58 7.26l-.701 1.008-2.967 4.261a.5.5 0 0 0-.121-.013h-2.943a.5.5 0 0 0-.12.011 2.153 2.153 0 0 0-2.023-1.441h-2.627c.003-.058.02-.114.02-.172a.5.5 0 0 0 0-.004c0-1.966-1.494-3.454-3.502-3.515a.5.5 0 0 0-.016 0 3.526 3.526 0 0 0-3.52 3.515.5.5 0 0 0 0 .004c0 .058.019.114.022.172h-2.627c-.93 0-1.72.6-2.02 1.43H14.93c-1.987 0-3.555 1.754-3.555 3.859v39.8c0 2.106 1.568 3.86 3.555 3.86h28.215c1.987 0 3.554-1.754 3.554-3.86V16.667a.5.5 0 0 0-.006-.076l3.01-4.319.002-.001.686-.985 2.144-3.078a.5.5 0 0 0-.125-.697l-4.99-3.453a.5.5 0 0 0-.281-.09zm.123 1.195l4.166 2.885-1.86 2.67-4.166-2.887 1.86-2.668zm-17.69 3.236c1.557.052 2.526 1.025 2.526 2.512-.002.19-.023.377-.067.56a.5.5 0 0 0 .487.616h3.187c.648 0 1.152.504 1.152 1.15v4.15H22.301v-4.15c0-.646.506-1.15 1.154-1.15h3.188a.5.5 0 0 0 .486-.615 2.505 2.505 0 0 1-.068-.56 2.508 2.508 0 0 1 2.511-2.513zm15.258.252l4.166 2.885-.111.162-14.072 20.198-4.159-2.881 14.041-20.17.004-.004.131-.19zm-15.25.79a1.53 1.53 0 0 0-1.523 1.52c0 .836.688 1.524 1.523 1.524s1.524-.688 1.524-1.523a1.53 1.53 0 0 0-1.524-1.522zm0 1c.295 0 .524.227.524.52a.517.517 0 0 1-.524.524.517.517 0 0 1-.523-.523c0-.294.228-.522.523-.522zm-14.65 3.076h6.37v2.79h-4.546c-.988 0-1.797.81-1.797 1.798v36.343c0 .988.81 1.8 1.797 1.8h16.84a.5.5 0 0 0 .04-.003.5.5 0 0 0 .364-.123l8.951-7.906a.5.5 0 0 0 .168-.387.5.5 0 0 0 0-.033v-26.07L45.7 18.02v38.156c0 1.617-1.158 2.86-2.554 2.86H14.93c-1.397 0-2.555-1.243-2.555-2.86V16.375c0-1.617 1.158-2.86 2.555-2.86zm22.927 0h2.368l-1.944 2.79h-.424v-2.79zm-21.103 3.79H21.3v.58a.5.5 0 0 0 .5.5h15.033l-2.88 4.137H29.73c-.676-.01-.676 1.01 0 1h3.528l-2.528 3.63a.5.5 0 0 0-.058-.003h-.942a.5.5 0 1 0 0 1h.307l-.658.946-.363 2.68h-9.27a.5.5 0 1 0 0 1h9.135l-.49 3.626h-8.645a.5.5 0 1 0 0 1h18.477a.5.5 0 1 0 0-1h-9.235l6.19-3.283.24-.344h2.805a.5.5 0 1 0 0-1h-2.11l6.004-8.617V47.34l-7.187.014a1.8 1.8 0 0 0-1.797 1.798l.033 6.094H16.754a.785.785 0 0 1-.797-.799V18.104c0-.451.346-.797.797-.797zm3.371 3.704a1.28 1.28 0 0 0-1.271 1.271v5.764a1.28 1.28 0 0 0 1.271 1.271h5.77c.695 0 1.273-.575 1.273-1.271V22.28c0-.696-.578-1.271-1.273-1.271h-5.77zm0 1h5.77c.159 0 .273.112.273.271v5.764a.262.262 0 0 1-.273.271h-5.77a.26.26 0 0 1-.271-.271V22.28a.26.26 0 0 1 .271-.271zm10.146 7.957l3.78 2.617-4.453 2.363.673-4.98zm-10.525 11.06a.5.5 0 1 0 0 1h18.477a.5.5 0 1 0 0-1H19.746zm-.05 4.627a.5.5 0 0 0 .05 1h8.844a.5.5 0 1 0 0-1h-8.844a.5.5 0 0 0-.05 0zm21.6 2.686v.002l-7.134 6.3-.03-5.496a.781.781 0 0 1 .798-.792.5.5 0 0 0 .002 0l6.365-.014z" color="#000" font-weight="400" font-family="sans-serif" white-space="normal" overflow="visible"></path></g><!----></svg>