<svg data-v-423bf9ae="" xmlns="http://www.w3.org/2000/svg" viewBox="0 0 827 90" class="iconLeft"><!----><!----><!----><g data-v-423bf9ae="" id="a036142b-da79-4e7c-ba19-43bc34f21039" fill="white" transform="matrix(5.102040767669678,0,0,5.102040767669678,105.11627960205078,4.999999523162842)"><path d="M7.34 11.16L7.01 10.32L3.05 10.32L3.05 10.32Q2.39 11.80 2.39 12.38L2.39 12.38L2.39 12.38Q2.39 12.80 2.71 12.91L2.71 12.91L2.71 12.91Q3.02 13.02 3.65 13.02L3.65 13.02L3.65 13.58L-0.18 13.58L-0.18 13.02L-0.18 13.02Q0.15 12.98 0.40 12.91L0.40 12.91L0.40 12.91Q0.64 12.84 0.83 12.71L0.83 12.71L0.83 12.71Q1.02 12.59 1.16 12.38L1.16 12.38L1.16 12.38Q1.30 12.18 1.43 11.89L1.43 11.89L5.11 2.66L6.15 2.66L9.49 10.84L9.49 10.84Q9.79 11.55 9.99 11.96L9.99 11.96L9.99 11.96Q10.19 12.36 10.42 12.58L10.42 12.58L10.42 12.58Q10.65 12.80 10.96 12.88L10.96 12.88L10.96 12.88Q11.26 12.96 11.73 13.01L11.73 13.01L11.73 13.58L6.44 13.58L6.44 13.01L6.44 13.01Q7.11 12.98 7.41 12.87L7.41 12.87L7.41 12.87Q7.70 12.75 7.70 12.42L7.70 12.42L7.70 12.42Q7.70 12.22 7.60 11.91L7.60 11.91L7.60 11.91Q7.50 11.61 7.34 11.16L7.34 11.16ZM5.04 5.24L3.37 9.48L6.71 9.48L5.10 5.24L5.04 5.24ZM14.92 9.37L14.92 11.30L14.92 11.30Q14.92 11.87 14.96 12.20L14.96 12.20L14.96 12.20Q14.99 12.53 15.11 12.71L15.11 12.71L15.11 12.71Q15.23 12.88 15.48 12.94L15.48 12.94L15.48 12.94Q15.72 12.99 16.14 13.02L16.14 13.02L16.14 13.58L11.73 13.58L11.73 13.02L11.73 13.02Q12.14 12.99 12.38 12.94L12.38 12.94L12.38 12.94Q12.63 12.88 12.76 12.71L12.76 12.71L12.76 12.71Q12.89 12.54 12.94 12.24L12.94 12.24L12.94 12.24Q12.98 11.93 12.98 11.40L12.98 11.40L12.98 9.65L12.98 9.65Q12.98 8.82 12.95 8.31L12.95 8.31L12.95 8.31Q12.92 7.80 12.88 7.62L12.88 7.62L12.88 7.62Q12.84 7.43 12.77 7.31L12.77 7.31L12.77 7.31Q12.70 7.20 12.56 7.13L12.56 7.13L12.56 7.13Q12.42 7.07 12.21 7.05L12.21 7.05L12.21 7.05Q12.00 7.03 11.68 7.03L11.68 7.03L11.68 6.55L14.38 6.02L14.56 7.25L14.62 7.25L14.62 7.25Q15.08 6.66 15.71 6.34L15.71 6.34L15.71 6.34Q16.34 6.02 17.09 6.02L17.09 6.02L17.09 6.02Q17.99 6.02 18.54 6.26L18.54 6.26L18.54 6.26Q19.10 6.51 19.53 7.08L19.53 7.08L19.53 7.08Q19.77 7.41 19.95 7.92L19.95 7.92L19.95 7.92Q20.13 8.43 20.13 9.32L20.13 9.32L20.13 11.30L20.13 11.30Q20.13 11.87 20.17 12.20L20.17 12.20L20.17 12.20Q20.20 12.53 20.32 12.71L20.32 12.71L20.32 12.71Q20.44 12.88 20.68 12.94L20.68 12.94L20.68 12.94Q20.92 12.99 21.32 13.02L21.32 13.02L21.32 13.58L16.94 13.58L16.94 13.02L16.94 13.02Q17.36 13.01 17.61 12.94L17.61 12.94L17.61 12.94Q17.85 12.88 17.98 12.71L17.98 12.71L17.98 12.71Q18.10 12.54 18.14 12.23L18.14 12.23L18.14 12.23Q18.19 11.91 18.19 11.40L18.19 11.40L18.19 9.49L18.19 9.49Q18.19 8.78 18.10 8.29L18.10 8.29L18.10 8.29Q18.02 7.80 17.83 7.50L17.83 7.50L17.83 7.50Q17.64 7.20 17.33 7.06L17.33 7.06L17.33 7.06Q17.02 6.93 16.56 6.93L16.56 6.93L16.56 6.93Q16.11 6.93 15.79 7.18L15.79 7.18L15.79 7.18Q15.47 7.43 15.23 7.88L15.23 7.88L15.23 7.88Q15.11 8.13 15.02 8.53L15.02 8.53L15.02 8.53Q14.92 8.93 14.92 9.37L14.92 9.37ZM28.24 13.72L28.24 12.68L28.18 12.68L28.18 12.68Q27.22 13.72 25.68 13.72L25.68 13.72L25.68 13.72Q24.88 13.72 24.21 13.44L24.21 13.44L24.21 13.44Q23.55 13.16 23.07 12.66L23.07 12.66L23.07 12.66Q22.58 12.15 22.32 11.46L22.32 11.46L22.32 11.46Q22.05 10.77 22.05 9.93L22.05 9.93L22.05 9.93Q22.05 9.09 22.32 8.37L22.32 8.37L22.32 8.37Q22.60 7.66 23.07 7.13L23.07 7.13L23.07 7.13Q23.53 6.61 24.19 6.31L24.19 6.31L24.19 6.31Q24.84 6.02 25.59 6.02L25.59 6.02L25.59 6.02Q26.29 6.02 26.83 6.23L26.83 6.23L26.83 6.23Q27.37 6.44 27.78 6.94L27.78 6.94L27.83 6.94L27.83 5.75L27.83 5.75Q27.83 4.93 27.81 4.33L27.81 4.33L27.81 4.33Q27.79 3.74 27.75 3.56L27.75 3.56L27.75 3.56Q27.68 3.26 27.32 3.13L27.32 3.13L27.32 3.13Q26.96 3.00 26.22 3.00L26.22 3.00L26.22 2.52L29.76 1.96L29.76 9.97L29.76 9.97Q29.76 11.02 29.79 11.59L29.79 11.59L29.79 11.59Q29.81 12.15 29.86 12.45L29.86 12.45L29.86 12.45Q29.89 12.63 29.95 12.74L29.95 12.74L29.95 12.74Q30.00 12.85 30.11 12.91L30.11 12.91L30.11 12.91Q30.23 12.98 30.41 13.00L30.41 13.00L30.41 13.00Q30.60 13.02 30.90 13.02L30.90 13.02L30.90 13.57L28.24 13.72ZM27.80 10.11L27.80 9.56L27.80 9.56Q27.80 9.03 27.69 8.57L27.69 8.57L27.69 8.57Q27.58 8.12 27.36 7.77L27.36 7.77L27.36 7.77Q27.10 7.36 26.71 7.15L26.71 7.15L26.71 7.15Q26.32 6.94 25.87 6.94L25.87 6.94L25.87 6.94Q25.05 6.94 24.61 7.70L24.61 7.70L24.61 7.70Q24.18 8.46 24.18 9.90L24.18 9.90L24.18 9.90Q24.18 11.35 24.61 12.14L24.61 12.14L24.61 12.14Q25.05 12.92 25.86 12.92L25.86 12.92L25.86 12.92Q26.32 12.92 26.74 12.68L26.74 12.68L26.74 12.68Q27.16 12.45 27.43 12.04L27.43 12.04L27.43 12.04Q27.62 11.73 27.71 11.28L27.71 11.28L27.71 11.28Q27.80 10.82 27.80 10.11L27.80 10.11ZM34.83 10.74L34.83 11.41L34.83 11.41Q34.83 11.96 34.88 12.27L34.88 12.27L34.88 12.27Q34.93 12.59 35.08 12.75L35.08 12.75L35.08 12.75Q35.24 12.92 35.53 12.97L35.53 12.97L35.53 12.97Q35.83 13.02 36.32 13.02L36.32 13.02L36.32 13.58L31.64 13.58L31.64 13.02L31.64 13.02Q32.06 12.99 32.31 12.94L32.31 12.94L32.31 12.94Q32.56 12.88 32.69 12.71L32.69 12.71L32.69 12.71Q32.82 12.54 32.85 12.23L32.85 12.23L32.85 12.23Q32.89 11.91 32.89 11.38L32.89 11.38L32.89 9.67L32.89 9.67Q32.89 8.81 32.84 8.29L32.84 8.29L32.84 8.29Q32.80 7.77 32.66 7.49L32.66 7.49L32.66 7.49Q32.52 7.21 32.26 7.12L32.26 7.12L32.26 7.12Q32.00 7.03 31.58 7.03L31.58 7.03L31.58 6.54L34.38 6.02L34.61 7.63L34.66 7.63L34.66 7.63Q35.04 6.89 35.66 6.45L35.66 6.45L35.66 6.45Q36.27 6.02 36.96 6.02L36.96 6.02L36.96 6.02Q37.49 6.02 37.83 6.29L37.83 6.29L37.83 6.29Q38.16 6.55 38.16 6.96L38.16 6.96L38.16 6.96Q38.16 7.41 37.91 7.71L37.91 7.71L37.91 7.71Q37.65 8.02 37.20 8.02L37.20 8.02L37.20 8.02Q36.99 8.02 36.82 7.94L36.82 7.94L36.82 7.94Q36.65 7.85 36.52 7.75L36.52 7.75L36.52 7.75Q36.39 7.64 36.25 7.55L36.25 7.55L36.25 7.55Q36.12 7.46 35.98 7.46L35.98 7.46L35.98 7.46Q35.71 7.46 35.48 7.81L35.48 7.81L35.48 7.81Q35.24 8.16 35.08 8.75L35.08 8.75L35.08 8.75Q34.97 9.17 34.90 9.70L34.90 9.70L34.90 9.70Q34.83 10.22 34.83 10.74L34.83 10.74ZM41.79 6.02L41.79 11.28L41.79 11.28Q41.79 11.84 41.83 12.18L41.83 12.18L41.83 12.18Q41.87 12.52 42 12.70L42 12.70L42 12.70Q42.13 12.88 42.36 12.94L42.36 12.94L42.36 12.94Q42.60 13.01 43.01 13.02L43.01 13.02L43.01 13.58L38.60 13.58L38.60 13.02L38.60 13.02Q38.99 13.01 39.23 12.93L39.23 12.93L39.23 12.93Q39.48 12.85 39.61 12.68L39.61 12.68L39.61 12.68Q39.75 12.50 39.80 12.19L39.80 12.19L39.80 12.19Q39.84 11.87 39.84 11.38L39.84 11.38L39.84 9.66L39.84 9.66Q39.84 8.85 39.82 8.32L39.82 8.32L39.82 8.32Q39.79 7.80 39.75 7.60L39.75 7.60L39.75 7.60Q39.68 7.25 39.43 7.14L39.43 7.14L39.43 7.14Q39.19 7.03 38.54 7.03L38.54 7.03L38.54 6.55L41.79 6.02ZM39.73 3.05L39.73 3.05L39.73 3.05Q39.73 2.59 40.05 2.28L40.05 2.28L40.05 2.28Q40.36 1.96 40.81 1.96L40.81 1.96L40.81 1.96Q41.27 1.96 41.59 2.28L41.59 2.28L41.59 2.28Q41.90 2.59 41.90 3.05L41.90 3.05L41.90 3.05Q41.90 3.50 41.59 3.81L41.59 3.81L41.59 3.81Q41.27 4.13 40.81 4.13L40.81 4.13L40.81 4.13Q40.36 4.13 40.05 3.81L40.05 3.81L40.05 3.81Q39.73 3.50 39.73 3.05ZM48.06 10.92L48.06 9.59L48.06 9.59Q46.89 10.12 46.29 10.58L46.29 10.58L46.29 10.58Q45.70 11.03 45.70 11.52L45.70 11.52L45.70 11.52Q45.70 11.93 45.92 12.17L45.92 12.17L45.92 12.17Q46.14 12.40 46.48 12.40L46.48 12.40L46.48 12.40Q46.82 12.40 47.11 12.29L47.11 12.29L47.11 12.29Q47.40 12.17 47.61 11.97L47.61 11.97L47.61 11.97Q47.82 11.77 47.94 11.50L47.94 11.50L47.94 11.50Q48.06 11.23 48.06 10.92L48.06 10.92ZM46.09 9.70L48.06 8.85L48.06 8.26L48.06 8.26Q48.06 7.45 47.78 7.08L47.78 7.08L47.78 7.08Q47.49 6.71 46.89 6.71L46.89 6.71L46.89 6.71Q46.48 6.71 46.27 6.92L46.27 6.92L46.27 6.92Q46.06 7.14 45.88 7.64L45.88 7.64L45.88 7.64Q45.75 7.99 45.52 8.19L45.52 8.19L45.52 8.19Q45.29 8.39 44.88 8.39L44.88 8.39L44.88 8.39Q44.49 8.39 44.28 8.15L44.28 8.15L44.28 8.15Q44.07 7.91 44.07 7.48L44.07 7.48L44.07 7.48Q44.07 6.80 44.81 6.41L44.81 6.41L44.81 6.41Q45.54 6.02 47.03 6.02L47.03 6.02L47.03 6.02Q48.59 6.02 49.27 6.59L49.27 6.59L49.27 6.59Q49.94 7.15 49.94 8.48L49.94 8.48L49.94 11.55L49.94 11.55Q49.94 12.74 50.41 12.74L50.41 12.74L50.41 12.74Q50.68 12.74 50.90 12.56L50.90 12.56L51.11 12.96L51.11 12.96Q50.92 13.31 50.51 13.52L50.51 13.52L50.51 13.52Q50.09 13.72 49.57 13.72L49.57 13.72L49.57 13.72Q48.93 13.72 48.59 13.33L48.59 13.33L48.59 13.33Q48.26 12.94 48.26 12.22L48.26 12.22L48.19 12.22L48.19 12.22Q47.78 12.95 47.14 13.33L47.14 13.33L47.14 13.33Q46.49 13.71 45.67 13.71L45.67 13.71L45.67 13.71Q44.79 13.71 44.25 13.21L44.25 13.21L44.25 13.21Q43.72 12.71 43.72 11.91L43.72 11.91L43.72 11.91Q43.72 11.30 44.27 10.76L44.27 10.76L44.27 10.76Q44.81 10.22 46.09 9.70L46.09 9.70ZM54.88 9.37L54.88 11.30L54.88 11.30Q54.88 11.87 54.92 12.20L54.92 12.20L54.92 12.20Q54.95 12.53 55.07 12.71L55.07 12.71L55.07 12.71Q55.19 12.88 55.43 12.94L55.43 12.94L55.43 12.94Q55.68 12.99 56.10 13.02L56.10 13.02L56.10 13.58L51.69 13.58L51.69 13.02L51.69 13.02Q52.09 12.99 52.34 12.94L52.34 12.94L52.34 12.94Q52.58 12.88 52.72 12.71L52.72 12.71L52.72 12.71Q52.85 12.54 52.89 12.24L52.89 12.24L52.89 12.24Q52.93 11.93 52.93 11.40L52.93 11.40L52.93 9.65L52.93 9.65Q52.93 8.82 52.91 8.31L52.91 8.31L52.91 8.31Q52.88 7.80 52.84 7.62L52.84 7.62L52.84 7.62Q52.79 7.43 52.72 7.31L52.72 7.31L52.72 7.31Q52.65 7.20 52.51 7.13L52.51 7.13L52.51 7.13Q52.37 7.07 52.16 7.05L52.16 7.05L52.16 7.05Q51.95 7.03 51.63 7.03L51.63 7.03L51.63 6.55L54.33 6.02L54.52 7.25L54.57 7.25L54.57 7.25Q55.03 6.66 55.66 6.34L55.66 6.34L55.66 6.34Q56.29 6.02 57.05 6.02L57.05 6.02L57.05 6.02Q57.95 6.02 58.50 6.26L58.50 6.26L58.50 6.26Q59.05 6.51 59.49 7.08L59.49 7.08L59.49 7.08Q59.72 7.41 59.91 7.92L59.91 7.92L59.91 7.92Q60.09 8.43 60.09 9.32L60.09 9.32L60.09 11.30L60.09 11.30Q60.09 11.87 60.12 12.20L60.12 12.20L60.12 12.20Q60.16 12.53 60.28 12.71L60.28 12.71L60.28 12.71Q60.40 12.88 60.63 12.94L60.63 12.94L60.63 12.94Q60.87 12.99 61.28 13.02L61.28 13.02L61.28 13.58L56.90 13.58L56.90 13.02L56.90 13.02Q57.32 13.01 57.56 12.94L57.56 12.94L57.56 12.94Q57.81 12.88 57.93 12.71L57.93 12.71L57.93 12.71Q58.06 12.54 58.10 12.23L58.10 12.23L58.10 12.23Q58.14 11.91 58.14 11.40L58.14 11.40L58.14 9.49L58.14 9.49Q58.14 8.78 58.06 8.29L58.06 8.29L58.06 8.29Q57.97 7.80 57.79 7.50L57.79 7.50L57.79 7.50Q57.60 7.20 57.29 7.06L57.29 7.06L57.29 7.06Q56.98 6.93 56.52 6.93L56.52 6.93L56.52 6.93Q56.07 6.93 55.75 7.18L55.75 7.18L55.75 7.18Q55.43 7.43 55.19 7.88L55.19 7.88L55.19 7.88Q55.06 8.13 54.97 8.53L54.97 8.53L54.97 8.53Q54.88 8.93 54.88 9.37L54.88 9.37ZM66.28 10.92L66.28 9.59L66.28 9.59Q65.10 10.12 64.51 10.58L64.51 10.58L64.51 10.58Q63.91 11.03 63.91 11.52L63.91 11.52L63.91 11.52Q63.91 11.93 64.13 12.17L64.13 12.17L64.13 12.17Q64.36 12.40 64.69 12.40L64.69 12.40L64.69 12.40Q65.03 12.40 65.32 12.29L65.32 12.29L65.32 12.29Q65.62 12.17 65.83 11.97L65.83 11.97L65.83 11.97Q66.04 11.77 66.16 11.50L66.16 11.50L66.16 11.50Q66.28 11.23 66.28 10.92L66.28 10.92ZM64.30 9.70L66.28 8.85L66.28 8.26L66.28 8.26Q66.28 7.45 65.99 7.08L65.99 7.08L65.99 7.08Q65.70 6.71 65.10 6.71L65.10 6.71L65.10 6.71Q64.69 6.71 64.48 6.92L64.48 6.92L64.48 6.92Q64.27 7.14 64.09 7.64L64.09 7.64L64.09 7.64Q63.97 7.99 63.74 8.19L63.74 8.19L63.74 8.19Q63.50 8.39 63.10 8.39L63.10 8.39L63.10 8.39Q62.71 8.39 62.50 8.15L62.50 8.15L62.50 8.15Q62.29 7.91 62.29 7.48L62.29 7.48L62.29 7.48Q62.29 6.80 63.02 6.41L63.02 6.41L63.02 6.41Q63.76 6.02 65.24 6.02L65.24 6.02L65.24 6.02Q66.81 6.02 67.48 6.59L67.48 6.59L67.48 6.59Q68.15 7.15 68.15 8.48L68.15 8.48L68.15 11.55L68.15 11.55Q68.15 12.74 68.63 12.74L68.63 12.74L68.63 12.74Q68.89 12.74 69.12 12.56L69.12 12.56L69.33 12.96L69.33 12.96Q69.13 13.31 68.72 13.52L68.72 13.52L68.72 13.52Q68.31 13.72 67.79 13.72L67.79 13.72L67.79 13.72Q67.14 13.72 66.81 13.33L66.81 13.33L66.81 13.33Q66.47 12.94 66.47 12.22L66.47 12.22L66.40 12.22L66.40 12.22Q66.00 12.95 65.35 13.33L65.35 13.33L65.35 13.33Q64.71 13.71 63.88 13.71L63.88 13.71L63.88 13.71Q63.00 13.71 62.47 13.21L62.47 13.21L62.47 13.21Q61.94 12.71 61.94 11.91L61.94 11.91L61.94 11.91Q61.94 11.30 62.48 10.76L62.48 10.76L62.48 10.76Q63.03 10.22 64.30 9.70L64.30 9.70ZM70.97 5.82L70.39 5.82L70.39 5.82Q70.32 5.45 70.23 4.98L70.23 4.98L70.23 4.98Q70.14 4.52 70.06 4.09L70.06 4.09L70.06 4.09Q69.97 3.65 69.92 3.30L69.92 3.30L69.92 3.30Q69.86 2.95 69.86 2.79L69.86 2.79L69.86 2.79Q69.86 2.42 70.09 2.19L70.09 2.19L70.09 2.19Q70.32 1.96 70.67 1.96L70.67 1.96L70.67 1.96Q71.04 1.96 71.27 2.20L71.27 2.20L71.27 2.20Q71.50 2.44 71.50 2.80L71.50 2.80L71.50 2.80Q71.50 2.97 71.44 3.32L71.44 3.32L71.44 3.32Q71.37 3.67 71.29 4.10L71.29 4.10L71.29 4.10Q71.20 4.52 71.11 4.98L71.11 4.98L71.11 4.98Q71.02 5.45 70.97 5.82L70.97 5.82ZM73.49 13.09L73.18 13.58L72.74 13.58L72.74 11.03L73.33 11.03L73.33 11.03Q73.57 12.04 74.02 12.50L74.02 12.50L74.02 12.50Q74.47 12.96 75.18 12.96L75.18 12.96L75.18 12.96Q75.70 12.96 75.98 12.75L75.98 12.75L75.98 12.75Q76.27 12.53 76.27 12.15L76.27 12.15L76.27 12.15Q76.27 11.76 75.92 11.39L75.92 11.39L75.92 11.39Q75.57 11.02 74.79 10.60L74.79 10.60L74.79 10.60Q73.72 10.02 73.26 9.46L73.26 9.46L73.26 9.46Q72.80 8.89 72.80 8.18L72.80 8.18L72.80 8.18Q72.80 7.71 72.97 7.31L72.97 7.31L72.97 7.31Q73.15 6.92 73.45 6.62L73.45 6.62L73.45 6.62Q73.75 6.33 74.17 6.17L74.17 6.17L74.17 6.17Q74.59 6.01 75.08 6.01L75.08 6.01L75.08 6.01Q75.52 6.01 75.94 6.13L75.94 6.13L75.94 6.13Q76.37 6.26 76.69 6.48L76.69 6.48L76.94 6.15L77.31 6.15L77.31 8.26L76.76 8.26L76.76 8.26Q76.44 7.46 76.10 7.11L76.10 7.11L76.10 7.11Q75.75 6.76 75.26 6.76L75.26 6.76L75.26 6.76Q74.87 6.76 74.64 6.97L74.64 6.97L74.64 6.97Q74.41 7.18 74.41 7.53L74.41 7.53L74.41 7.53Q74.41 7.92 74.75 8.27L74.75 8.27L74.75 8.27Q75.10 8.62 75.89 9.04L75.89 9.04L75.89 9.04Q76.45 9.35 76.86 9.65L76.86 9.65L76.86 9.65Q77.27 9.94 77.52 10.24L77.52 10.24L77.52 10.24Q77.77 10.54 77.89 10.87L77.89 10.87L77.89 10.87Q78.01 11.20 78.01 11.58L78.01 11.58L78.01 11.58Q78.01 12.07 77.83 12.46L77.83 12.46L77.83 12.46Q77.64 12.85 77.31 13.13L77.31 13.13L77.31 13.13Q76.97 13.41 76.50 13.57L76.50 13.57L76.50 13.57Q76.03 13.72 75.46 13.72L75.46 13.72L75.46 13.72Q74.86 13.72 74.34 13.56L74.34 13.56L74.34 13.56Q73.82 13.40 73.49 13.09L73.49 13.09ZM92.04 5.80L92.04 5.80L92.04 5.80Q92.04 7.31 90.86 8.10L90.86 8.10L90.86 8.10Q89.68 8.89 87.44 8.89L87.44 8.89L86.25 8.89L86.25 11.35L86.25 11.35Q86.25 11.89 86.32 12.21L86.32 12.21L86.32 12.21Q86.39 12.54 86.62 12.73L86.62 12.73L86.62 12.73Q86.84 12.91 87.23 12.96L87.23 12.96L87.23 12.96Q87.63 13.02 88.28 13.02L88.28 13.02L88.28 13.58L82.73 13.58L82.73 13.02L82.73 13.02Q83.19 13.01 83.48 12.94L83.48 12.94L83.48 12.94Q83.78 12.87 83.93 12.70L83.93 12.70L83.93 12.70Q84.08 12.53 84.14 12.22L84.14 12.22L84.14 12.22Q84.20 11.91 84.20 11.42L84.20 11.42L84.20 4.96L84.20 4.96Q84.20 4.47 84.15 4.16L84.15 4.16L84.15 4.16Q84.10 3.86 83.96 3.69L83.96 3.69L83.96 3.69Q83.82 3.51 83.56 3.45L83.56 3.45L83.56 3.45Q83.30 3.39 82.88 3.36L82.88 3.36L82.88 2.80L87.72 2.80L87.72 2.80Q89.85 2.80 90.94 3.56L90.94 3.56L90.94 3.56Q92.04 4.31 92.04 5.80ZM86.25 3.82L86.25 8.05L87.16 8.05L87.16 8.05Q88.52 8.05 89.15 7.50L89.15 7.50L89.15 7.50Q89.78 6.96 89.78 5.78L89.78 5.78L89.78 5.78Q89.78 4.73 89.25 4.16L89.25 4.16L89.25 4.16Q88.72 3.58 87.58 3.58L87.58 3.58L86.51 3.58L86.51 3.58Q86.25 3.58 86.25 3.82L86.25 3.82ZM95.87 6.02L95.87 11.28L95.87 11.28Q95.87 11.84 95.91 12.18L95.91 12.18L95.91 12.18Q95.96 12.52 96.08 12.70L96.08 12.70L96.08 12.70Q96.21 12.88 96.45 12.94L96.45 12.94L96.45 12.94Q96.68 13.01 97.09 13.02L97.09 13.02L97.09 13.58L92.68 13.58L92.68 13.02L92.68 13.02Q93.07 13.01 93.32 12.93L93.32 12.93L93.32 12.93Q93.56 12.85 93.70 12.68L93.70 12.68L93.70 12.68Q93.83 12.50 93.88 12.19L93.88 12.19L93.88 12.19Q93.93 11.87 93.93 11.38L93.93 11.38L93.93 9.66L93.93 9.66Q93.93 8.85 93.90 8.32L93.90 8.32L93.90 8.32Q93.87 7.80 93.83 7.60L93.83 7.60L93.83 7.60Q93.76 7.25 93.51 7.14L93.51 7.14L93.51 7.14Q93.27 7.03 92.62 7.03L92.62 7.03L92.62 6.55L95.87 6.02ZM93.81 3.05L93.81 3.05L93.81 3.05Q93.81 2.59 94.13 2.28L94.13 2.28L94.13 2.28Q94.44 1.96 94.89 1.96L94.89 1.96L94.89 1.96Q95.35 1.96 95.67 2.28L95.67 2.28L95.67 2.28Q95.98 2.59 95.98 3.05L95.98 3.05L95.98 3.05Q95.98 3.50 95.67 3.81L95.67 3.81L95.67 3.81Q95.35 4.13 94.89 4.13L94.89 4.13L94.89 4.13Q94.44 4.13 94.13 3.81L94.13 3.81L94.13 3.81Q93.81 3.50 93.81 3.05ZM104.78 11.20L104.61 13.58L97.69 13.58L97.69 13.26L102.07 6.90L100.79 6.90L100.79 6.90Q100.18 6.90 99.81 6.95L99.81 6.95L99.81 6.95Q99.43 7 99.20 7.16L99.20 7.16L99.20 7.16Q98.97 7.32 98.85 7.60L98.85 7.60L98.85 7.60Q98.73 7.88 98.64 8.34L98.64 8.34L98.10 8.34L98.27 6.16L104.58 6.16L104.58 6.48L100.27 12.82L101.50 12.82L101.50 12.82Q102.23 12.82 102.70 12.76L102.70 12.76L102.70 12.76Q103.18 12.70 103.47 12.52L103.47 12.52L103.47 12.52Q103.77 12.35 103.94 12.03L103.94 12.03L103.94 12.03Q104.10 11.72 104.23 11.20L104.23 11.20L104.78 11.20ZM112.73 11.20L112.56 13.58L105.64 13.58L105.64 13.26L110.03 6.90L108.74 6.90L108.74 6.90Q108.14 6.90 107.76 6.95L107.76 6.95L107.76 6.95Q107.38 7 107.15 7.16L107.15 7.16L107.15 7.16Q106.92 7.32 106.80 7.60L106.80 7.60L106.80 7.60Q106.68 7.88 106.60 8.34L106.60 8.34L106.05 8.34L106.22 6.16L112.53 6.16L112.53 6.48L108.22 12.82L109.45 12.82L109.45 12.82Q110.18 12.82 110.66 12.76L110.66 12.76L110.66 12.76Q111.13 12.70 111.43 12.52L111.43 12.52L111.43 12.52Q111.72 12.35 111.89 12.03L111.89 12.03L111.89 12.03Q112.06 11.72 112.18 11.20L112.18 11.20L112.73 11.20ZM120.40 11.79L120.79 12.28L120.79 12.28Q119.52 13.72 117.61 13.72L117.61 13.72L117.61 13.72Q116.75 13.72 116.04 13.45L116.04 13.45L116.04 13.45Q115.33 13.17 114.83 12.68L114.83 12.68L114.83 12.68Q114.32 12.18 114.04 11.49L114.04 11.49L114.04 11.49Q113.76 10.81 113.76 9.97L113.76 9.97L113.76 9.97Q113.76 9.10 114.06 8.38L114.06 8.38L114.06 8.38Q114.35 7.66 114.89 7.13L114.89 7.13L114.89 7.13Q115.43 6.61 116.17 6.31L116.17 6.31L116.17 6.31Q116.90 6.02 117.78 6.02L117.78 6.02L117.78 6.02Q119.27 6.02 120.09 6.82L120.09 6.82L120.09 6.82Q120.92 7.62 120.92 9.06L120.92 9.06L120.92 9.06Q120.92 9.28 120.85 9.33L120.85 9.33L120.85 9.33Q120.78 9.38 120.46 9.38L120.46 9.38L115.95 9.38L115.95 9.38Q115.89 9.51 115.89 9.84L115.89 9.84L115.89 9.84Q115.89 11.21 116.49 12.01L116.49 12.01L116.49 12.01Q117.08 12.81 118.10 12.81L118.10 12.81L118.10 12.81Q118.69 12.81 119.27 12.54L119.27 12.54L119.27 12.54Q119.85 12.28 120.40 11.79L120.40 11.79ZM116.05 8.60L118.08 8.60L118.08 8.60Q118.64 8.60 118.80 8.53L118.80 8.53L118.80 8.53Q118.96 8.47 118.96 8.23L118.96 8.23L118.96 8.23Q118.96 7.62 118.61 7.22L118.61 7.22L118.61 7.22Q118.26 6.83 117.73 6.83L117.73 6.83L117.73 6.83Q117.12 6.83 116.66 7.33L116.66 7.33L116.66 7.33Q116.19 7.83 116.05 8.60L116.05 8.60ZM125.03 10.74L125.03 11.41L125.03 11.41Q125.03 11.96 125.08 12.27L125.08 12.27L125.08 12.27Q125.13 12.59 125.29 12.75L125.29 12.75L125.29 12.75Q125.44 12.92 125.73 12.97L125.73 12.97L125.73 12.97Q126.03 13.02 126.52 13.02L126.52 13.02L126.52 13.58L121.84 13.58L121.84 13.02L121.84 13.02Q122.26 12.99 122.51 12.94L122.51 12.94L122.51 12.94Q122.77 12.88 122.89 12.71L122.89 12.71L122.89 12.71Q123.02 12.54 123.05 12.23L123.05 12.23L123.05 12.23Q123.09 11.91 123.09 11.38L123.09 11.38L123.09 9.67L123.09 9.67Q123.09 8.81 123.05 8.29L123.05 8.29L123.05 8.29Q123.00 7.77 122.86 7.49L122.86 7.49L122.86 7.49Q122.72 7.21 122.47 7.12L122.47 7.12L122.47 7.12Q122.21 7.03 121.79 7.03L121.79 7.03L121.79 6.54L124.59 6.02L124.81 7.63L124.87 7.63L124.87 7.63Q125.24 6.89 125.86 6.45L125.86 6.45L125.86 6.45Q126.48 6.02 127.16 6.02L127.16 6.02L127.16 6.02Q127.69 6.02 128.03 6.29L128.03 6.29L128.03 6.29Q128.37 6.55 128.37 6.96L128.37 6.96L128.37 6.96Q128.37 7.41 128.11 7.71L128.11 7.71L128.11 7.71Q127.85 8.02 127.40 8.02L127.40 8.02L127.40 8.02Q127.19 8.02 127.02 7.94L127.02 7.94L127.02 7.94Q126.85 7.85 126.72 7.75L126.72 7.75L126.72 7.75Q126.59 7.64 126.45 7.55L126.45 7.55L126.45 7.55Q126.32 7.46 126.18 7.46L126.18 7.46L126.18 7.46Q125.92 7.46 125.68 7.81L125.68 7.81L125.68 7.81Q125.44 8.16 125.29 8.75L125.29 8.75L125.29 8.75Q125.17 9.17 125.10 9.70L125.10 9.70L125.10 9.70Q125.03 10.22 125.03 10.74L125.03 10.74ZM131.99 6.02L131.99 11.28L131.99 11.28Q131.99 11.84 132.03 12.18L132.03 12.18L132.03 12.18Q132.08 12.52 132.20 12.70L132.20 12.70L132.20 12.70Q132.33 12.88 132.57 12.94L132.57 12.94L132.57 12.94Q132.80 13.01 133.21 13.02L133.21 13.02L133.21 13.58L128.80 13.58L128.80 13.02L128.80 13.02Q129.19 13.01 129.44 12.93L129.44 12.93L129.44 12.93Q129.68 12.85 129.81 12.68L129.81 12.68L129.81 12.68Q129.95 12.50 130.00 12.19L130.00 12.19L130.00 12.19Q130.05 11.87 130.05 11.38L130.05 11.38L130.05 9.66L130.05 9.66Q130.05 8.85 130.02 8.32L130.02 8.32L130.02 8.32Q129.99 7.80 129.95 7.60L129.95 7.60L129.95 7.60Q129.88 7.25 129.63 7.14L129.63 7.14L129.63 7.14Q129.39 7.03 128.74 7.03L128.74 7.03L128.74 6.55L131.99 6.02ZM129.93 3.05L129.93 3.05L129.93 3.05Q129.93 2.59 130.25 2.28L130.25 2.28L130.25 2.28Q130.56 1.96 131.01 1.96L131.01 1.96L131.01 1.96Q131.47 1.96 131.79 2.28L131.79 2.28L131.79 2.28Q132.10 2.59 132.10 3.05L132.10 3.05L132.10 3.05Q132.10 3.50 131.79 3.81L131.79 3.81L131.79 3.81Q131.47 4.13 131.01 4.13L131.01 4.13L131.01 4.13Q130.56 4.13 130.25 3.81L130.25 3.81L130.25 3.81Q129.93 3.50 129.93 3.05ZM138.26 10.92L138.26 9.59L138.26 9.59Q137.09 10.12 136.49 10.58L136.49 10.58L136.49 10.58Q135.90 11.03 135.90 11.52L135.90 11.52L135.90 11.52Q135.90 11.93 136.12 12.17L136.12 12.17L136.12 12.17Q136.35 12.40 136.68 12.40L136.68 12.40L136.68 12.40Q137.02 12.40 137.31 12.29L137.31 12.29L137.31 12.29Q137.61 12.17 137.82 11.97L137.82 11.97L137.82 11.97Q138.03 11.77 138.15 11.50L138.15 11.50L138.15 11.50Q138.26 11.23 138.26 10.92L138.26 10.92ZM136.29 9.70L138.26 8.85L138.26 8.26L138.26 8.26Q138.26 7.45 137.98 7.08L137.98 7.08L137.98 7.08Q137.69 6.71 137.09 6.71L137.09 6.71L137.09 6.71Q136.68 6.71 136.47 6.92L136.47 6.92L136.47 6.92Q136.26 7.14 136.08 7.64L136.08 7.64L136.08 7.64Q135.95 7.99 135.72 8.19L135.72 8.19L135.72 8.19Q135.49 8.39 135.09 8.39L135.09 8.39L135.09 8.39Q134.69 8.39 134.48 8.15L134.48 8.15L134.48 8.15Q134.27 7.91 134.27 7.48L134.27 7.48L134.27 7.48Q134.27 6.80 135.01 6.41L135.01 6.41L135.01 6.41Q135.74 6.02 137.23 6.02L137.23 6.02L137.23 6.02Q138.80 6.02 139.47 6.59L139.47 6.59L139.47 6.59Q140.14 7.15 140.14 8.48L140.14 8.48L140.14 11.55L140.14 11.55Q140.14 12.74 140.62 12.74L140.62 12.74L140.62 12.74Q140.88 12.74 141.11 12.56L141.11 12.56L141.32 12.96L141.32 12.96Q141.12 13.31 140.71 13.52L140.71 13.52L140.71 13.52Q140.29 13.72 139.78 13.72L139.78 13.72L139.78 13.72Q139.13 13.72 138.80 13.33L138.80 13.33L138.80 13.33Q138.46 12.94 138.46 12.22L138.46 12.22L138.39 12.22L138.39 12.22Q137.98 12.95 137.34 13.33L137.34 13.33L137.34 13.33Q136.70 13.71 135.87 13.71L135.87 13.71L135.87 13.71Q134.99 13.71 134.46 13.21L134.46 13.21L134.46 13.21Q133.92 12.71 133.92 11.91L133.92 11.91L133.92 11.91Q133.92 11.30 134.47 10.76L134.47 10.76L134.47 10.76Q135.02 10.22 136.29 9.70L136.29 9.70Z"></path></g><!----><g data-v-423bf9ae="" id="3a15c484-a640-4558-a0af-1bbe73e0d585" transform="matrix(1.451612949371338,0,0,1.451612949371338,-0.5492099523544312,-1.4516143798828125)" stroke="none" fill="white"><g stroke-width="2" stroke-linecap="round" stroke-linejoin="round" stroke-miterlimit="10"><path d="M57.458 26.71s-4.626-.683-8.727 2.083c0 0 .722-1.758.033-2.832 0 0-3.379 1.009-5.479 3.873 0 0 .394-.716.197-2.083 0 0-2.133-.098-4.134 3.19l-.755-1.725s-2.658 1.595-3.576 4.589c0 0 .066-1.107-.853-2.083 0 0-3.806 3.385-3.412 6.444 0 0-.328-1.497-1.411-2.311 0 0-5.414 10.318.131 21.416 0 0 10.204 4.85 22.048-1.888 0 0-1.247-1.237-1.805-1.074 0 0 4.298-1.204 5.118-3.71 0 0-1.345-.814-2.001-.553 0 0 3.445-1.92 4.265-4.036 0 0-1.181-.781-2.165-.521 0 0 3.347-2.213 4.068-4.687 0 0-1.312-.716-2.592-.228 0 0 2.559-1.497 2.461-5.175 0 0-1.214-.553-2.461.163 0 0 2.887-3.84 1.05-8.852zM22 63s20.005-12.759 35.458-36.29M10 63S24.272 36.51 26.473 1"></path><path d="M29.34 35.855c1.083.814 1.411 2.311 1.411 2.311-.394-3.059 3.412-6.444 3.412-6.444.919.976.853 2.083.853 2.083.919-2.994 3.576-4.589 3.576-4.589l.257.589a3.83 3.83 0 0 0-.067-.863s-2.016-.061-2.581.633c0 0 2.611-4.253 2.175-7.093 0 0-1.813-.127-2.743.771 0 0 2.315-4.515 1.541-7.687 0 0-1.918.026-3.031 1.358 0 0 1.895-3.237-.56-7.227 0 0-1.704.144-2.636 1.707 0 0 .766-6.022-4.476-10.402 0 0-5.586 2.119-8.388 7.711 0 0-.317-2.384-1.769-3.139 0 0-3.119 3.209-3.631 7.667 0 0-.018-1.033-1.109-2.416 0 0-2.437 1.216-2.569 6.079l-1.94-1.432s-1.942 3.406-1.056 7.274c0 0-.633-1.26-2.278-1.765 0 0-2.079 6.091.31 9.216 0 0-1.32-1.445-3.044-1.669 0 0 .551 14.724 13.801 23.506 0 0 5.732-.397 12.196-4.377-.277-6.792 2.346-11.802 2.346-11.802zM22.447 28.222S23.454 19.419 19 15M20.522 35.754S26.546 27.105 31 26M17 46s2.568-8.372-3-15M52 43s-5.093-.244-10.715 3.742M38 41s.936 2.96-3.432 12.196"></path></g></g><!----></svg>