<svg width="25" height="29" viewBox="0 0 25 29" fill="none" xmlns="http://www.w3.org/2000/svg">
<path d="M8.98242 10.0522H10.9824V22.0522H8.98242V10.0522ZM14.9824 10.0522H16.9824V22.0522H14.9824V10.0522Z" fill="#5A0202"/>
<path d="M0.982422 4.05225V6.05225H2.98242V26.0522C2.98242 26.5827 3.19314 27.0914 3.56821 27.4665C3.94328 27.8415 4.45199 28.0522 4.98242 28.0522H20.9824C21.5129 28.0522 22.0216 27.8415 22.3966 27.4665C22.7717 27.0914 22.9824 26.5827 22.9824 26.0522V6.05225H24.9824V4.05225H0.982422ZM4.98242 26.0522V6.05225H20.9824V26.0522H4.98242ZM8.98242 0.0522461H16.9824V2.05225H8.98242V0.0522461Z" fill="#5A0202"/>
</svg>
