<svg xmlns="http://www.w3.org/2000/svg" version="1.1" xmlns:xlink="http://www.w3.org/1999/xlink" viewBox="0 0 700 700" style="overflow: hidden; display: block;" width="700" height="700"><defs><linearGradient id="two-3" x1="350" y1="-350" x2="350" y2="350" spreadMethod="pad" gradientUnits="userSpaceOnUse"><stop offset="0%" stop-color="hsl(1.4, 100%, 67%)" stop-opacity="1"></stop><stop offset="100%" stop-color="hsl(167, 52%, 78%)" stop-opacity="1"></stop></linearGradient></defs><g id="two-0" transform="matrix(1 0 0 1 0 0)" opacity="1"><path transform="matrix(1 0 0 1 350 350)" id="two-2" d="M 262.359493 77.035697 C 261.918756 103.515391 225.818562 118.550748 201.787647 129.681046 C 177.873878 140.757085 149.199731 141.489757 122.846994 141.772989 C 102.277278 141.994066 78.640864 123.011868 61.04098 133.661102 C 36.42728 148.554213 59.361609 210.770159 30.983273 215.493398 C 3.793237 220.018858 5.597648 154.74693 -21.659149 150.642685 C -48.325013 146.627421 -64.34985 186.53456 -89.559656 196.108291 C -117.946723 206.888625 -150.640593 212.672514 -180.72738 208.570514 C -211.379104 204.391491 -254.450916 199.829295 -266.818217 171.473655 C -281.375541 138.096749 -232.856006 103.788998 -229.876235 67.497752 C -228.024385 44.943689 -235.594519 21.708311 -241.987039 0 C -250.165637 -27.773641 -291.914169 -56.940795 -275.766407 -80.972323 C -247.865281 -122.495519 -149.733112 -36.797435 -124.175528 -79.802766 C -90.209369 -136.957068 -270.670714 -210.896423 -221.841281 -256.018486 C -178.115087 -296.424773 -125.699157 -131.92521 -71.424381 -156.397579 C -18.953944 -180.056376 -104.610123 -323.563158 -47.323419 -329.141604 C 19.88316 -335.686024 -45.326118 -154.584793 19.517471 -135.746994 C 46.562654 -127.89006 59.768695 -198.43373 86.275004 -188.915909 C 109.068865 -180.731144 87.776342 -137.085026 101.48402 -117.118804 C 110.42832 -104.090787 126.752214 -96.330923 141.637676 -91.025008 C 180.03263 -77.339149 251.764889 -116.387319 264.429468 -77.643498 C 276.230549 -41.54131 179.624931 -37.981683 179.465884 -0.000001 C 179.30951 37.34344 262.980969 39.697102 262.359493 77.035697 Z " fill="url(#two-3)" stroke="undefined" stroke-width="1" stroke-opacity="1" fill-opacity="1" visibility="visible" stroke-linecap="butt" stroke-linejoin="miter" stroke-miterlimit="4"></path></g></svg>